<mxfile host="Electron" modified="2024-05-16T14:37:39.361Z" agent="Mozilla/5.0 (X11; Linux x86_64) AppleWebKit/537.36 (KHTML, like Gecko) draw.io/21.6.5 Chrome/114.0.5735.243 Electron/25.3.1 Safari/537.36" etag="ZjCD8P_OeJrtipLuzzNl" version="21.6.5" type="device" pages="5">
  <diagram name="Page-1" id="2dpNTnqzCD3AR5897dvN">
    <mxGraphModel dx="926" dy="535" grid="1" gridSize="10" guides="1" tooltips="1" connect="1" arrows="1" fold="1" page="1" pageScale="1" pageWidth="827" pageHeight="1169" math="0" shadow="0">
      <root>
        <mxCell id="0" />
        <mxCell id="1" parent="0" />
        <UserObject label="Login" id="6GhoDmWNX7qzpcK3NcFg-1">
          <mxCell style="swimlane;whiteSpace=wrap;html=1;" vertex="1" parent="1">
            <mxGeometry x="409" y="142" width="280" height="360" as="geometry" />
          </mxCell>
        </UserObject>
        <UserObject label="Customer Login" link="data:page/id,B5U2mdlBe-yntDlE22er" id="Ju9fBjEibyK2pCyKbQ4v-1">
          <mxCell style="rounded=0;whiteSpace=wrap;html=1;" vertex="1" parent="6GhoDmWNX7qzpcK3NcFg-1">
            <mxGeometry x="95" y="78" width="90" height="30" as="geometry" />
          </mxCell>
        </UserObject>
        <mxCell id="LVcaV5P0o2gDBPnvgwJI-2" style="edgeStyle=orthogonalEdgeStyle;rounded=0;orthogonalLoop=1;jettySize=auto;html=1;exitX=1;exitY=0.5;exitDx=0;exitDy=0;" edge="1" parent="1" source="LVcaV5P0o2gDBPnvgwJI-19">
          <mxGeometry relative="1" as="geometry">
            <mxPoint x="409" y="191" as="targetPoint" />
            <mxPoint x="269" y="196.0000000000001" as="sourcePoint" />
          </mxGeometry>
        </mxCell>
        <mxCell id="LVcaV5P0o2gDBPnvgwJI-8" value="Login Request" style="edgeLabel;html=1;align=center;verticalAlign=middle;resizable=0;points=[];" vertex="1" connectable="0" parent="LVcaV5P0o2gDBPnvgwJI-2">
          <mxGeometry x="-0.0442" y="1" relative="1" as="geometry">
            <mxPoint x="-1" as="offset" />
          </mxGeometry>
        </mxCell>
        <mxCell id="LVcaV5P0o2gDBPnvgwJI-5" style="edgeStyle=orthogonalEdgeStyle;rounded=0;orthogonalLoop=1;jettySize=auto;html=1;exitX=1;exitY=0.5;exitDx=0;exitDy=0;" edge="1" parent="1" source="LVcaV5P0o2gDBPnvgwJI-20">
          <mxGeometry relative="1" as="geometry">
            <mxPoint x="409" y="371" as="targetPoint" />
            <mxPoint x="269" y="376.0000000000001" as="sourcePoint" />
          </mxGeometry>
        </mxCell>
        <mxCell id="LVcaV5P0o2gDBPnvgwJI-15" value="Login Request" style="edgeLabel;html=1;align=center;verticalAlign=middle;resizable=0;points=[];" vertex="1" connectable="0" parent="LVcaV5P0o2gDBPnvgwJI-5">
          <mxGeometry x="-0.2069" y="-1" relative="1" as="geometry">
            <mxPoint x="9" as="offset" />
          </mxGeometry>
        </mxCell>
        <mxCell id="LVcaV5P0o2gDBPnvgwJI-7" value="" style="endArrow=classic;html=1;rounded=0;" edge="1" parent="1">
          <mxGeometry width="50" height="50" relative="1" as="geometry">
            <mxPoint x="409" y="271" as="sourcePoint" />
            <mxPoint x="209" y="231" as="targetPoint" />
            <Array as="points">
              <mxPoint x="209" y="271" />
            </Array>
          </mxGeometry>
        </mxCell>
        <mxCell id="LVcaV5P0o2gDBPnvgwJI-14" value="&lt;font style=&quot;font-size: 11px;&quot;&gt;Response&lt;/font&gt;" style="rounded=1;whiteSpace=wrap;html=1;" vertex="1" parent="1">
          <mxGeometry x="261" y="261" width="106" height="20" as="geometry" />
        </mxCell>
        <mxCell id="LVcaV5P0o2gDBPnvgwJI-17" value="" style="edgeStyle=orthogonalEdgeStyle;rounded=0;orthogonalLoop=1;jettySize=auto;html=1;" edge="1" parent="1">
          <mxGeometry relative="1" as="geometry">
            <mxPoint x="409" y="451" as="sourcePoint" />
            <mxPoint x="209" y="411" as="targetPoint" />
          </mxGeometry>
        </mxCell>
        <mxCell id="LVcaV5P0o2gDBPnvgwJI-16" value="&lt;font style=&quot;font-size: 11px;&quot;&gt;Response&lt;/font&gt;" style="rounded=1;whiteSpace=wrap;html=1;" vertex="1" parent="1">
          <mxGeometry x="261" y="442" width="106" height="20" as="geometry" />
        </mxCell>
        <mxCell id="LVcaV5P0o2gDBPnvgwJI-18" value="&lt;b&gt;Customer&lt;/b&gt;" style="ellipse;whiteSpace=wrap;html=1;" vertex="1" parent="1">
          <mxGeometry x="149" y="151" width="120" height="80" as="geometry" />
        </mxCell>
        <mxCell id="LVcaV5P0o2gDBPnvgwJI-19" value="&lt;b&gt;Customer&lt;/b&gt;" style="ellipse;whiteSpace=wrap;html=1;" vertex="1" parent="1">
          <mxGeometry x="149" y="151" width="120" height="80" as="geometry" />
        </mxCell>
        <mxCell id="LVcaV5P0o2gDBPnvgwJI-20" value="&lt;b&gt;Back Office&lt;/b&gt;" style="ellipse;whiteSpace=wrap;html=1;" vertex="1" parent="1">
          <mxGeometry x="149" y="331" width="120" height="80" as="geometry" />
        </mxCell>
      </root>
    </mxGraphModel>
  </diagram>
  <diagram id="B5U2mdlBe-yntDlE22er" name="Page-2">
    <mxGraphModel dx="1100" dy="635" grid="1" gridSize="10" guides="1" tooltips="1" connect="1" arrows="1" fold="1" page="1" pageScale="1" pageWidth="827" pageHeight="1169" math="0" shadow="0">
      <root>
        <mxCell id="0" />
        <mxCell id="1" parent="0" />
        <mxCell id="0xraMx9idPYSITcvMejS-1" value="2.0 Login Diagram" style="swimlane;childLayout=stackLayout;resizeParent=1;resizeParentMax=0;startSize=20;html=1;labelBackgroundColor=none;" vertex="1" parent="1">
          <mxGeometry x="250" y="120" width="910" height="670" as="geometry" />
        </mxCell>
        <mxCell id="0xraMx9idPYSITcvMejS-2" value="Customer" style="swimlane;startSize=20;html=1;labelBackgroundColor=none;" vertex="1" parent="0xraMx9idPYSITcvMejS-1">
          <mxGeometry y="20" width="260" height="650" as="geometry" />
        </mxCell>
        <mxCell id="CR7200BEMpUsdSI5MFVU-1" value="2.1 Customer Login" style="swimlane;whiteSpace=wrap;html=1;" vertex="1" parent="0xraMx9idPYSITcvMejS-2">
          <mxGeometry x="30" y="80" width="200" height="90" as="geometry" />
        </mxCell>
        <mxCell id="CR7200BEMpUsdSI5MFVU-4" value="&lt;ul&gt;&lt;li&gt;Enter Username&lt;/li&gt;&lt;li&gt;Enter Password&lt;/li&gt;&lt;/ul&gt;" style="text;html=1;align=center;verticalAlign=middle;resizable=0;points=[];autosize=1;strokeColor=none;fillColor=none;" vertex="1" parent="CR7200BEMpUsdSI5MFVU-1">
          <mxGeometry x="-5" y="23" width="150" height="70" as="geometry" />
        </mxCell>
        <mxCell id="0xraMx9idPYSITcvMejS-7" value="System" style="swimlane;startSize=20;html=1;labelBackgroundColor=none;" vertex="1" parent="0xraMx9idPYSITcvMejS-1">
          <mxGeometry x="260" y="20" width="320" height="650" as="geometry" />
        </mxCell>
        <mxCell id="eicMww06hU4r8xZQ3Fsa-26" value="" style="edgeStyle=orthogonalEdgeStyle;rounded=0;orthogonalLoop=1;jettySize=auto;html=1;labelBackgroundColor=none;fontColor=default;" edge="1" parent="0xraMx9idPYSITcvMejS-7" source="eicMww06hU4r8xZQ3Fsa-20" target="eicMww06hU4r8xZQ3Fsa-25">
          <mxGeometry relative="1" as="geometry" />
        </mxCell>
        <mxCell id="eicMww06hU4r8xZQ3Fsa-20" value="&lt;b&gt;2.2 Validating login details&lt;/b&gt;" style="swimlane;fontStyle=0;childLayout=stackLayout;horizontal=1;startSize=30;horizontalStack=0;resizeParent=1;resizeParentMax=0;resizeLast=0;collapsible=1;marginBottom=0;whiteSpace=wrap;html=1;labelBackgroundColor=none;" vertex="1" parent="0xraMx9idPYSITcvMejS-7">
          <mxGeometry x="50" y="50" width="220" height="170" as="geometry" />
        </mxCell>
        <mxCell id="eicMww06hU4r8xZQ3Fsa-21" value="System will check for following details" style="text;strokeColor=none;fillColor=none;align=left;verticalAlign=middle;spacingLeft=4;spacingRight=4;overflow=hidden;points=[[0,0.5],[1,0.5]];portConstraint=eastwest;rotatable=0;whiteSpace=wrap;html=1;labelBackgroundColor=none;" vertex="1" parent="eicMww06hU4r8xZQ3Fsa-20">
          <mxGeometry y="30" width="220" height="30" as="geometry" />
        </mxCell>
        <mxCell id="eicMww06hU4r8xZQ3Fsa-22" value="1. Format of login Id is valid" style="text;strokeColor=none;fillColor=none;align=left;verticalAlign=middle;spacingLeft=4;spacingRight=4;overflow=hidden;points=[[0,0.5],[1,0.5]];portConstraint=eastwest;rotatable=0;whiteSpace=wrap;html=1;labelBackgroundColor=none;" vertex="1" parent="eicMww06hU4r8xZQ3Fsa-20">
          <mxGeometry y="60" width="220" height="30" as="geometry" />
        </mxCell>
        <mxCell id="eicMww06hU4r8xZQ3Fsa-23" value="2. Identify the tenant on the basis of&amp;nbsp;&lt;br&gt;&amp;nbsp; &amp;nbsp; the request coming from which&amp;nbsp;&lt;br&gt;&amp;nbsp; &amp;nbsp; domain." style="text;strokeColor=none;fillColor=none;align=left;verticalAlign=middle;spacingLeft=4;spacingRight=4;overflow=hidden;points=[[0,0.5],[1,0.5]];portConstraint=eastwest;rotatable=0;whiteSpace=wrap;html=1;labelBackgroundColor=none;" vertex="1" parent="eicMww06hU4r8xZQ3Fsa-20">
          <mxGeometry y="90" width="220" height="80" as="geometry" />
        </mxCell>
        <mxCell id="eicMww06hU4r8xZQ3Fsa-40" style="edgeStyle=orthogonalEdgeStyle;rounded=0;orthogonalLoop=1;jettySize=auto;html=1;labelBackgroundColor=none;fontColor=default;" edge="1" parent="0xraMx9idPYSITcvMejS-7" source="eicMww06hU4r8xZQ3Fsa-25">
          <mxGeometry relative="1" as="geometry">
            <mxPoint x="160" y="370" as="targetPoint" />
          </mxGeometry>
        </mxCell>
        <mxCell id="eicMww06hU4r8xZQ3Fsa-25" value="tenant Identified" style="whiteSpace=wrap;html=1;fontStyle=0;startSize=30;labelBackgroundColor=none;" vertex="1" parent="0xraMx9idPYSITcvMejS-7">
          <mxGeometry x="100" y="265" width="120" height="60" as="geometry" />
        </mxCell>
        <mxCell id="eicMww06hU4r8xZQ3Fsa-34" value="&lt;b&gt;2.3 System fetch details from service&lt;/b&gt;" style="swimlane;fontStyle=0;childLayout=stackLayout;horizontal=1;startSize=30;horizontalStack=0;resizeParent=1;resizeParentMax=0;resizeLast=0;collapsible=1;marginBottom=0;whiteSpace=wrap;html=1;labelBackgroundColor=none;" vertex="1" parent="0xraMx9idPYSITcvMejS-7">
          <mxGeometry x="41" y="371" width="240" height="110" as="geometry" />
        </mxCell>
        <mxCell id="eicMww06hU4r8xZQ3Fsa-36" value="1.&amp;nbsp;Get Login Type allowed to Tenant&amp;nbsp;" style="text;strokeColor=none;fillColor=none;align=left;verticalAlign=middle;spacingLeft=4;spacingRight=4;overflow=hidden;points=[[0,0.5],[1,0.5]];portConstraint=eastwest;rotatable=0;whiteSpace=wrap;html=1;labelBackgroundColor=none;" vertex="1" parent="eicMww06hU4r8xZQ3Fsa-34">
          <mxGeometry y="30" width="240" height="40" as="geometry" />
        </mxCell>
        <mxCell id="eicMww06hU4r8xZQ3Fsa-37" value="2. Call Service to get configuration detail." style="text;strokeColor=none;fillColor=none;align=left;verticalAlign=middle;spacingLeft=4;spacingRight=4;overflow=hidden;points=[[0,0.5],[1,0.5]];portConstraint=eastwest;rotatable=0;whiteSpace=wrap;html=1;labelBackgroundColor=none;" vertex="1" parent="eicMww06hU4r8xZQ3Fsa-34">
          <mxGeometry y="70" width="240" height="40" as="geometry" />
        </mxCell>
        <mxCell id="0xraMx9idPYSITcvMejS-16" value="Service" style="swimlane;startSize=20;html=1;labelBackgroundColor=none;" vertex="1" parent="0xraMx9idPYSITcvMejS-1">
          <mxGeometry x="580" y="20" width="330" height="650" as="geometry" />
        </mxCell>
        <mxCell id="ssF6BP9YCMkSYRHM_YIW-2" value="2.4s Service respose" style="swimlane;whiteSpace=wrap;html=1;" vertex="1" parent="0xraMx9idPYSITcvMejS-16">
          <mxGeometry x="70" y="375" width="200" height="100" as="geometry" />
        </mxCell>
        <mxCell id="ssF6BP9YCMkSYRHM_YIW-5" value="Service Provide Configuration &lt;br&gt;Details for system request" style="text;html=1;align=center;verticalAlign=middle;resizable=0;points=[];autosize=1;strokeColor=none;fillColor=none;" vertex="1" parent="ssF6BP9YCMkSYRHM_YIW-2">
          <mxGeometry x="10" y="45" width="180" height="40" as="geometry" />
        </mxCell>
        <mxCell id="ssF6BP9YCMkSYRHM_YIW-4" style="edgeStyle=orthogonalEdgeStyle;rounded=0;orthogonalLoop=1;jettySize=auto;html=1;" edge="1" parent="0xraMx9idPYSITcvMejS-1">
          <mxGeometry relative="1" as="geometry">
            <mxPoint x="540" y="440" as="sourcePoint" />
            <mxPoint x="650" y="440" as="targetPoint" />
          </mxGeometry>
        </mxCell>
        <mxCell id="ssF6BP9YCMkSYRHM_YIW-7" style="edgeStyle=orthogonalEdgeStyle;rounded=0;orthogonalLoop=1;jettySize=auto;html=1;entryX=1;entryY=0.113;entryDx=0;entryDy=0;entryPerimeter=0;" edge="1" parent="0xraMx9idPYSITcvMejS-1" target="eicMww06hU4r8xZQ3Fsa-37">
          <mxGeometry relative="1" as="geometry">
            <mxPoint x="650" y="465" as="sourcePoint" />
          </mxGeometry>
        </mxCell>
        <mxCell id="CR7200BEMpUsdSI5MFVU-3" style="edgeStyle=orthogonalEdgeStyle;rounded=0;orthogonalLoop=1;jettySize=auto;html=1;entryX=0;entryY=0.5;entryDx=0;entryDy=0;" edge="1" parent="0xraMx9idPYSITcvMejS-1" source="CR7200BEMpUsdSI5MFVU-1" target="eicMww06hU4r8xZQ3Fsa-22">
          <mxGeometry relative="1" as="geometry" />
        </mxCell>
      </root>
    </mxGraphModel>
  </diagram>
  <diagram id="2UoUCBIqEsoyiKaNhVe2" name="Page-3">
    <mxGraphModel dx="1100" dy="635" grid="1" gridSize="10" guides="1" tooltips="1" connect="1" arrows="1" fold="1" page="1" pageScale="1" pageWidth="827" pageHeight="1169" math="0" shadow="0">
      <root>
        <mxCell id="0" />
        <mxCell id="1" parent="0" />
        <mxCell id="8UZXigteqVFlPkr5x5vE-1" value="2.0 Login Diagram" style="swimlane;childLayout=stackLayout;resizeParent=1;resizeParentMax=0;startSize=20;html=1;labelBackgroundColor=none;" vertex="1" parent="1">
          <mxGeometry x="250" y="120" width="910" height="670" as="geometry" />
        </mxCell>
        <mxCell id="8UZXigteqVFlPkr5x5vE-2" value="Back Office" style="swimlane;startSize=20;html=1;labelBackgroundColor=none;" vertex="1" parent="8UZXigteqVFlPkr5x5vE-1">
          <mxGeometry y="20" width="260" height="650" as="geometry" />
        </mxCell>
        <mxCell id="8UZXigteqVFlPkr5x5vE-3" value="2.1 Back Office Login" style="swimlane;whiteSpace=wrap;html=1;" vertex="1" parent="8UZXigteqVFlPkr5x5vE-2">
          <mxGeometry x="30" y="80" width="200" height="90" as="geometry" />
        </mxCell>
        <mxCell id="8UZXigteqVFlPkr5x5vE-4" value="&lt;ul&gt;&lt;li&gt;Enter Username&lt;/li&gt;&lt;li&gt;Enter Password&lt;/li&gt;&lt;/ul&gt;" style="text;html=1;align=center;verticalAlign=middle;resizable=0;points=[];autosize=1;strokeColor=none;fillColor=none;" vertex="1" parent="8UZXigteqVFlPkr5x5vE-3">
          <mxGeometry x="-5" y="23" width="150" height="70" as="geometry" />
        </mxCell>
        <mxCell id="8UZXigteqVFlPkr5x5vE-5" value="System" style="swimlane;startSize=20;html=1;labelBackgroundColor=none;" vertex="1" parent="8UZXigteqVFlPkr5x5vE-1">
          <mxGeometry x="260" y="20" width="320" height="650" as="geometry" />
        </mxCell>
        <mxCell id="8UZXigteqVFlPkr5x5vE-6" value="" style="edgeStyle=orthogonalEdgeStyle;rounded=0;orthogonalLoop=1;jettySize=auto;html=1;labelBackgroundColor=none;fontColor=default;" edge="1" parent="8UZXigteqVFlPkr5x5vE-5" source="8UZXigteqVFlPkr5x5vE-7" target="8UZXigteqVFlPkr5x5vE-12">
          <mxGeometry relative="1" as="geometry" />
        </mxCell>
        <mxCell id="8UZXigteqVFlPkr5x5vE-7" value="&lt;b&gt;2.2 Validating login details&lt;/b&gt;" style="swimlane;fontStyle=0;childLayout=stackLayout;horizontal=1;startSize=30;horizontalStack=0;resizeParent=1;resizeParentMax=0;resizeLast=0;collapsible=1;marginBottom=0;whiteSpace=wrap;html=1;labelBackgroundColor=none;" vertex="1" parent="8UZXigteqVFlPkr5x5vE-5">
          <mxGeometry x="50" y="50" width="220" height="170" as="geometry" />
        </mxCell>
        <mxCell id="8UZXigteqVFlPkr5x5vE-8" value="System will check for following details" style="text;strokeColor=none;fillColor=none;align=left;verticalAlign=middle;spacingLeft=4;spacingRight=4;overflow=hidden;points=[[0,0.5],[1,0.5]];portConstraint=eastwest;rotatable=0;whiteSpace=wrap;html=1;labelBackgroundColor=none;" vertex="1" parent="8UZXigteqVFlPkr5x5vE-7">
          <mxGeometry y="30" width="220" height="30" as="geometry" />
        </mxCell>
        <mxCell id="8UZXigteqVFlPkr5x5vE-9" value="1. Format of login Id is valid" style="text;strokeColor=none;fillColor=none;align=left;verticalAlign=middle;spacingLeft=4;spacingRight=4;overflow=hidden;points=[[0,0.5],[1,0.5]];portConstraint=eastwest;rotatable=0;whiteSpace=wrap;html=1;labelBackgroundColor=none;" vertex="1" parent="8UZXigteqVFlPkr5x5vE-7">
          <mxGeometry y="60" width="220" height="30" as="geometry" />
        </mxCell>
        <mxCell id="8UZXigteqVFlPkr5x5vE-10" value="2. Identify the tenant on the basis of&amp;nbsp;&lt;br&gt;&amp;nbsp; &amp;nbsp; the request coming from which&amp;nbsp;&lt;br&gt;&amp;nbsp; &amp;nbsp; domain." style="text;strokeColor=none;fillColor=none;align=left;verticalAlign=middle;spacingLeft=4;spacingRight=4;overflow=hidden;points=[[0,0.5],[1,0.5]];portConstraint=eastwest;rotatable=0;whiteSpace=wrap;html=1;labelBackgroundColor=none;" vertex="1" parent="8UZXigteqVFlPkr5x5vE-7">
          <mxGeometry y="90" width="220" height="80" as="geometry" />
        </mxCell>
        <mxCell id="8UZXigteqVFlPkr5x5vE-11" style="edgeStyle=orthogonalEdgeStyle;rounded=0;orthogonalLoop=1;jettySize=auto;html=1;labelBackgroundColor=none;fontColor=default;" edge="1" parent="8UZXigteqVFlPkr5x5vE-5" source="8UZXigteqVFlPkr5x5vE-12">
          <mxGeometry relative="1" as="geometry">
            <mxPoint x="160" y="370" as="targetPoint" />
          </mxGeometry>
        </mxCell>
        <mxCell id="8UZXigteqVFlPkr5x5vE-12" value="tenant Identified" style="whiteSpace=wrap;html=1;fontStyle=0;startSize=30;labelBackgroundColor=none;" vertex="1" parent="8UZXigteqVFlPkr5x5vE-5">
          <mxGeometry x="100" y="265" width="120" height="60" as="geometry" />
        </mxCell>
        <mxCell id="8UZXigteqVFlPkr5x5vE-13" value="&lt;b&gt;2.3 System fetch details from service&lt;/b&gt;" style="swimlane;fontStyle=0;childLayout=stackLayout;horizontal=1;startSize=30;horizontalStack=0;resizeParent=1;resizeParentMax=0;resizeLast=0;collapsible=1;marginBottom=0;whiteSpace=wrap;html=1;labelBackgroundColor=none;" vertex="1" parent="8UZXigteqVFlPkr5x5vE-5">
          <mxGeometry x="41" y="371" width="240" height="110" as="geometry" />
        </mxCell>
        <mxCell id="8UZXigteqVFlPkr5x5vE-14" value="1.&amp;nbsp;Get Login Type allowed to Tenant&amp;nbsp;" style="text;strokeColor=none;fillColor=none;align=left;verticalAlign=middle;spacingLeft=4;spacingRight=4;overflow=hidden;points=[[0,0.5],[1,0.5]];portConstraint=eastwest;rotatable=0;whiteSpace=wrap;html=1;labelBackgroundColor=none;" vertex="1" parent="8UZXigteqVFlPkr5x5vE-13">
          <mxGeometry y="30" width="240" height="40" as="geometry" />
        </mxCell>
        <mxCell id="8UZXigteqVFlPkr5x5vE-15" value="2. Call Service to get configuration detail." style="text;strokeColor=none;fillColor=none;align=left;verticalAlign=middle;spacingLeft=4;spacingRight=4;overflow=hidden;points=[[0,0.5],[1,0.5]];portConstraint=eastwest;rotatable=0;whiteSpace=wrap;html=1;labelBackgroundColor=none;" vertex="1" parent="8UZXigteqVFlPkr5x5vE-13">
          <mxGeometry y="70" width="240" height="40" as="geometry" />
        </mxCell>
        <mxCell id="8UZXigteqVFlPkr5x5vE-16" value="Service" style="swimlane;startSize=20;html=1;labelBackgroundColor=none;" vertex="1" parent="8UZXigteqVFlPkr5x5vE-1">
          <mxGeometry x="580" y="20" width="330" height="650" as="geometry" />
        </mxCell>
        <mxCell id="8UZXigteqVFlPkr5x5vE-17" value="2.4s Service respose" style="swimlane;whiteSpace=wrap;html=1;" vertex="1" parent="8UZXigteqVFlPkr5x5vE-16">
          <mxGeometry x="70" y="375" width="200" height="100" as="geometry" />
        </mxCell>
        <mxCell id="8UZXigteqVFlPkr5x5vE-18" value="Service Provide Configuration &lt;br&gt;Details for system request" style="text;html=1;align=center;verticalAlign=middle;resizable=0;points=[];autosize=1;strokeColor=none;fillColor=none;" vertex="1" parent="8UZXigteqVFlPkr5x5vE-17">
          <mxGeometry x="10" y="45" width="180" height="40" as="geometry" />
        </mxCell>
        <mxCell id="8UZXigteqVFlPkr5x5vE-19" style="edgeStyle=orthogonalEdgeStyle;rounded=0;orthogonalLoop=1;jettySize=auto;html=1;" edge="1" parent="8UZXigteqVFlPkr5x5vE-1">
          <mxGeometry relative="1" as="geometry">
            <mxPoint x="540" y="440" as="sourcePoint" />
            <mxPoint x="650" y="440" as="targetPoint" />
          </mxGeometry>
        </mxCell>
        <mxCell id="8UZXigteqVFlPkr5x5vE-20" style="edgeStyle=orthogonalEdgeStyle;rounded=0;orthogonalLoop=1;jettySize=auto;html=1;entryX=1;entryY=0.113;entryDx=0;entryDy=0;entryPerimeter=0;" edge="1" parent="8UZXigteqVFlPkr5x5vE-1" target="8UZXigteqVFlPkr5x5vE-15">
          <mxGeometry relative="1" as="geometry">
            <mxPoint x="650" y="465" as="sourcePoint" />
          </mxGeometry>
        </mxCell>
        <mxCell id="8UZXigteqVFlPkr5x5vE-21" style="edgeStyle=orthogonalEdgeStyle;rounded=0;orthogonalLoop=1;jettySize=auto;html=1;entryX=0;entryY=0.5;entryDx=0;entryDy=0;" edge="1" parent="8UZXigteqVFlPkr5x5vE-1" source="8UZXigteqVFlPkr5x5vE-3" target="8UZXigteqVFlPkr5x5vE-9">
          <mxGeometry relative="1" as="geometry" />
        </mxCell>
      </root>
    </mxGraphModel>
  </diagram>
  <diagram id="VK13JJRl4hJx6QreGSYt" name="Page-4">
    <mxGraphModel dx="503" dy="1459" grid="1" gridSize="10" guides="1" tooltips="1" connect="1" arrows="1" fold="1" page="1" pageScale="1" pageWidth="827" pageHeight="1169" math="0" shadow="0">
      <root>
        <mxCell id="0" />
        <mxCell id="1" parent="0" />
        <mxCell id="GtYdYnI94WCDgzR8Q5fu-1" value="Switch Account" style="swimlane;childLayout=stackLayout;resizeParent=1;resizeParentMax=0;startSize=20;html=1;" vertex="1" parent="1">
          <mxGeometry x="230.00000000000045" y="-1020" width="360" height="480" as="geometry" />
        </mxCell>
        <mxCell id="GtYdYnI94WCDgzR8Q5fu-2" value="Customer&amp;nbsp;" style="swimlane;startSize=20;html=1;" vertex="1" parent="GtYdYnI94WCDgzR8Q5fu-1">
          <mxGeometry y="20" width="120" height="460" as="geometry" />
        </mxCell>
        <mxCell id="GtYdYnI94WCDgzR8Q5fu-3" value="System" style="swimlane;startSize=20;html=1;" vertex="1" parent="GtYdYnI94WCDgzR8Q5fu-1">
          <mxGeometry x="120" y="20" width="120" height="460" as="geometry" />
        </mxCell>
        <mxCell id="GtYdYnI94WCDgzR8Q5fu-4" value="Service" style="swimlane;startSize=20;html=1;" vertex="1" parent="GtYdYnI94WCDgzR8Q5fu-1">
          <mxGeometry x="240" y="20" width="120" height="460" as="geometry" />
        </mxCell>
      </root>
    </mxGraphModel>
  </diagram>
  <diagram id="Lo31b5rNH1ITT3R49FZY" name="Page-5">
    <mxGraphModel dx="1035" dy="1767" grid="1" gridSize="10" guides="1" tooltips="1" connect="1" arrows="1" fold="1" page="1" pageScale="1" pageWidth="827" pageHeight="1169" math="0" shadow="0">
      <root>
        <mxCell id="0" />
        <mxCell id="1" parent="0" />
        <mxCell id="azSGfPs9xbWuMXh3MNec-1" value="4.0 MASO Login" style="swimlane;childLayout=stackLayout;resizeParent=1;resizeParentMax=0;startSize=20;html=1;" vertex="1" parent="1">
          <mxGeometry x="10" y="-1169" width="777" height="1059" as="geometry" />
        </mxCell>
        <mxCell id="azSGfPs9xbWuMXh3MNec-2" value="Customer" style="swimlane;startSize=20;html=1;" vertex="1" parent="azSGfPs9xbWuMXh3MNec-1">
          <mxGeometry y="20" width="260" height="1039" as="geometry" />
        </mxCell>
        <mxCell id="_4-YrBIiTZtCkkpfduEx-1" value="2.1 Customer Login" style="swimlane;whiteSpace=wrap;html=1;" vertex="1" parent="azSGfPs9xbWuMXh3MNec-2">
          <mxGeometry x="25" y="78" width="200" height="90" as="geometry" />
        </mxCell>
        <mxCell id="_4-YrBIiTZtCkkpfduEx-2" value="&lt;ul&gt;&lt;li&gt;Enter Username&lt;/li&gt;&lt;li&gt;Enter Password&lt;/li&gt;&lt;/ul&gt;" style="text;html=1;align=center;verticalAlign=middle;resizable=0;points=[];autosize=1;strokeColor=none;fillColor=none;" vertex="1" parent="_4-YrBIiTZtCkkpfduEx-1">
          <mxGeometry x="-5" y="23" width="150" height="70" as="geometry" />
        </mxCell>
        <mxCell id="_4-YrBIiTZtCkkpfduEx-58" value="2.4.3 2FA Screen" style="swimlane;startSize=21;" vertex="1" parent="azSGfPs9xbWuMXh3MNec-2">
          <mxGeometry x="40.25" y="359" width="169.5" height="81" as="geometry" />
        </mxCell>
        <mxCell id="_4-YrBIiTZtCkkpfduEx-59" value="Customer Fill 2FA Screen" style="text;html=1;align=center;verticalAlign=middle;resizable=0;points=[];autosize=1;strokeColor=none;fillColor=none;" vertex="1" parent="_4-YrBIiTZtCkkpfduEx-58">
          <mxGeometry x="5" y="34" width="160" height="30" as="geometry" />
        </mxCell>
        <mxCell id="azSGfPs9xbWuMXh3MNec-3" value="System" style="swimlane;startSize=20;html=1;" vertex="1" parent="azSGfPs9xbWuMXh3MNec-1">
          <mxGeometry x="260" y="20" width="262" height="1039" as="geometry" />
        </mxCell>
        <mxCell id="_4-YrBIiTZtCkkpfduEx-3" value="&lt;b&gt;2.2 Validating login details&lt;/b&gt;" style="swimlane;fontStyle=0;childLayout=stackLayout;horizontal=1;startSize=30;horizontalStack=0;resizeParent=1;resizeParentMax=0;resizeLast=0;collapsible=1;marginBottom=0;whiteSpace=wrap;html=1;labelBackgroundColor=none;" vertex="1" parent="azSGfPs9xbWuMXh3MNec-3">
          <mxGeometry x="21" y="38" width="220" height="170" as="geometry" />
        </mxCell>
        <mxCell id="_4-YrBIiTZtCkkpfduEx-4" value="System will check for following details" style="text;strokeColor=none;fillColor=none;align=left;verticalAlign=middle;spacingLeft=4;spacingRight=4;overflow=hidden;points=[[0,0.5],[1,0.5]];portConstraint=eastwest;rotatable=0;whiteSpace=wrap;html=1;labelBackgroundColor=none;" vertex="1" parent="_4-YrBIiTZtCkkpfduEx-3">
          <mxGeometry y="30" width="220" height="30" as="geometry" />
        </mxCell>
        <mxCell id="_4-YrBIiTZtCkkpfduEx-5" value="1. Format of login Id is valid" style="text;strokeColor=none;fillColor=none;align=left;verticalAlign=middle;spacingLeft=4;spacingRight=4;overflow=hidden;points=[[0,0.5],[1,0.5]];portConstraint=eastwest;rotatable=0;whiteSpace=wrap;html=1;labelBackgroundColor=none;" vertex="1" parent="_4-YrBIiTZtCkkpfduEx-3">
          <mxGeometry y="60" width="220" height="30" as="geometry" />
        </mxCell>
        <mxCell id="_4-YrBIiTZtCkkpfduEx-6" value="2. Identify the tenant on the basis of&amp;nbsp;&lt;br&gt;&amp;nbsp; &amp;nbsp; the request coming from which&amp;nbsp;&lt;br&gt;&amp;nbsp; &amp;nbsp; domain." style="text;strokeColor=none;fillColor=none;align=left;verticalAlign=middle;spacingLeft=4;spacingRight=4;overflow=hidden;points=[[0,0.5],[1,0.5]];portConstraint=eastwest;rotatable=0;whiteSpace=wrap;html=1;labelBackgroundColor=none;" vertex="1" parent="_4-YrBIiTZtCkkpfduEx-3">
          <mxGeometry y="90" width="220" height="80" as="geometry" />
        </mxCell>
        <mxCell id="_4-YrBIiTZtCkkpfduEx-37" value="2.6" style="swimlane;startSize=21;" vertex="1" parent="azSGfPs9xbWuMXh3MNec-3">
          <mxGeometry x="50" y="628" width="152.5" height="82" as="geometry" />
        </mxCell>
        <mxCell id="_4-YrBIiTZtCkkpfduEx-38" value="&lt;div style=&quot;text-align: left;&quot;&gt;&lt;span style=&quot;background-color: initial;&quot;&gt;Redirect to customer&lt;/span&gt;&lt;/div&gt;&lt;div style=&quot;text-align: left;&quot;&gt;&lt;span style=&quot;background-color: initial;&quot;&gt;to &lt;/span&gt;&lt;span style=&quot;background-color: initial;&quot;&gt;select the account&amp;nbsp;&lt;/span&gt;&lt;/div&gt;" style="text;html=1;align=center;verticalAlign=middle;resizable=0;points=[];autosize=1;strokeColor=none;fillColor=none;" vertex="1" parent="_4-YrBIiTZtCkkpfduEx-37">
          <mxGeometry x="6" y="33" width="140" height="40" as="geometry" />
        </mxCell>
        <mxCell id="_4-YrBIiTZtCkkpfduEx-52" value="2.4.2 2FA Screen" style="swimlane;startSize=21;" vertex="1" parent="azSGfPs9xbWuMXh3MNec-3">
          <mxGeometry x="56.25" y="358" width="152.5" height="82" as="geometry" />
        </mxCell>
        <mxCell id="_4-YrBIiTZtCkkpfduEx-53" value="Generate 2FA&amp;nbsp;" style="text;html=1;align=left;verticalAlign=middle;resizable=0;points=[];autosize=1;strokeColor=none;fillColor=none;" vertex="1" parent="_4-YrBIiTZtCkkpfduEx-52">
          <mxGeometry x="33" y="38" width="100" height="30" as="geometry" />
        </mxCell>
        <mxCell id="_4-YrBIiTZtCkkpfduEx-70" value="" style="endArrow=classic;html=1;rounded=0;" edge="1" parent="azSGfPs9xbWuMXh3MNec-3">
          <mxGeometry width="50" height="50" relative="1" as="geometry">
            <mxPoint x="56.25" y="389" as="sourcePoint" />
            <mxPoint x="-50" y="389" as="targetPoint" />
          </mxGeometry>
        </mxCell>
        <mxCell id="QRnUp6vZIL36JpYoQ4-v-15" value="2.5.3 " style="swimlane;startSize=21;" vertex="1" parent="azSGfPs9xbWuMXh3MNec-3">
          <mxGeometry x="56" y="766" width="150" height="71" as="geometry" />
        </mxCell>
        <mxCell id="QRnUp6vZIL36JpYoQ4-v-16" value="&lt;div style=&quot;text-align: left;&quot;&gt;Validate JWT&lt;/div&gt;" style="text;html=1;align=center;verticalAlign=middle;resizable=0;points=[];autosize=1;strokeColor=none;fillColor=none;" vertex="1" parent="QRnUp6vZIL36JpYoQ4-v-15">
          <mxGeometry x="30" y="32" width="90" height="30" as="geometry" />
        </mxCell>
        <mxCell id="QRnUp6vZIL36JpYoQ4-v-30" value="2.7 Customer Authentication" style="swimlane;startSize=21;" vertex="1" parent="azSGfPs9xbWuMXh3MNec-3">
          <mxGeometry x="30" y="899" width="198" height="81" as="geometry" />
        </mxCell>
        <mxCell id="QRnUp6vZIL36JpYoQ4-v-33" style="edgeStyle=orthogonalEdgeStyle;rounded=0;orthogonalLoop=1;jettySize=auto;html=1;" edge="1" parent="QRnUp6vZIL36JpYoQ4-v-30" source="QRnUp6vZIL36JpYoQ4-v-31">
          <mxGeometry relative="1" as="geometry">
            <mxPoint x="-161" y="50" as="targetPoint" />
          </mxGeometry>
        </mxCell>
        <mxCell id="QRnUp6vZIL36JpYoQ4-v-34" value="Redurection to customer" style="edgeLabel;html=1;align=center;verticalAlign=middle;resizable=0;points=[];" vertex="1" connectable="0" parent="QRnUp6vZIL36JpYoQ4-v-33">
          <mxGeometry x="-0.0427" relative="1" as="geometry">
            <mxPoint as="offset" />
          </mxGeometry>
        </mxCell>
        <mxCell id="QRnUp6vZIL36JpYoQ4-v-31" value="System authenticate the customer" style="text;html=1;align=center;verticalAlign=middle;resizable=0;points=[];autosize=1;strokeColor=none;fillColor=none;" vertex="1" parent="QRnUp6vZIL36JpYoQ4-v-30">
          <mxGeometry x="-1" y="35" width="200" height="30" as="geometry" />
        </mxCell>
        <mxCell id="QRnUp6vZIL36JpYoQ4-v-51" value="2.3.1 Warning Screen" style="swimlane;startSize=21;" vertex="1" parent="azSGfPs9xbWuMXh3MNec-3">
          <mxGeometry x="60" y="236" width="148.75" height="61" as="geometry" />
        </mxCell>
        <mxCell id="azSGfPs9xbWuMXh3MNec-4" value="Service" style="swimlane;startSize=20;html=1;" vertex="1" parent="azSGfPs9xbWuMXh3MNec-1">
          <mxGeometry x="522" y="20" width="255" height="1039" as="geometry" />
        </mxCell>
        <mxCell id="_4-YrBIiTZtCkkpfduEx-20" style="edgeStyle=orthogonalEdgeStyle;rounded=0;orthogonalLoop=1;jettySize=auto;html=1;exitX=0;exitY=0.5;exitDx=0;exitDy=0;entryX=1;entryY=0.5;entryDx=0;entryDy=0;" edge="1" parent="azSGfPs9xbWuMXh3MNec-4" target="_4-YrBIiTZtCkkpfduEx-52">
          <mxGeometry relative="1" as="geometry">
            <mxPoint x="-55" y="399" as="targetPoint" />
            <mxPoint x="60" y="399" as="sourcePoint" />
          </mxGeometry>
        </mxCell>
        <mxCell id="_4-YrBIiTZtCkkpfduEx-21" value="YES" style="edgeLabel;html=1;align=center;verticalAlign=middle;resizable=0;points=[];" vertex="1" connectable="0" parent="_4-YrBIiTZtCkkpfduEx-20">
          <mxGeometry x="-0.5343" y="-2" relative="1" as="geometry">
            <mxPoint as="offset" />
          </mxGeometry>
        </mxCell>
        <mxCell id="_xWhdsRlSiU0VKHc4Gb8-1" value="2.4 Check for 2FA" style="swimlane;startSize=21;" vertex="1" parent="azSGfPs9xbWuMXh3MNec-4">
          <mxGeometry x="60" y="358" width="152.5" height="82" as="geometry" />
        </mxCell>
        <mxCell id="_xWhdsRlSiU0VKHc4Gb8-2" value="Service will check&lt;br&gt;&amp;nbsp;2FA enable or not" style="text;html=1;align=left;verticalAlign=middle;resizable=0;points=[];autosize=1;strokeColor=none;fillColor=none;" vertex="1" parent="_xWhdsRlSiU0VKHc4Gb8-1">
          <mxGeometry x="16" y="33" width="120" height="40" as="geometry" />
        </mxCell>
        <mxCell id="_4-YrBIiTZtCkkpfduEx-15" style="edgeStyle=orthogonalEdgeStyle;rounded=0;orthogonalLoop=1;jettySize=auto;html=1;exitX=0.5;exitY=1;exitDx=0;exitDy=0;entryX=0.5;entryY=0;entryDx=0;entryDy=0;" edge="1" parent="azSGfPs9xbWuMXh3MNec-4" source="_4-YrBIiTZtCkkpfduEx-8" target="_4-YrBIiTZtCkkpfduEx-13">
          <mxGeometry relative="1" as="geometry" />
        </mxCell>
        <mxCell id="_4-YrBIiTZtCkkpfduEx-8" value="2.3 Authenticatication" style="swimlane;" vertex="1" parent="azSGfPs9xbWuMXh3MNec-4">
          <mxGeometry x="40" y="62" width="192.5" height="102" as="geometry" />
        </mxCell>
        <mxCell id="_4-YrBIiTZtCkkpfduEx-16" style="edgeStyle=orthogonalEdgeStyle;rounded=0;orthogonalLoop=1;jettySize=auto;html=1;exitX=0;exitY=0.5;exitDx=0;exitDy=0;" edge="1" parent="azSGfPs9xbWuMXh3MNec-4" source="_4-YrBIiTZtCkkpfduEx-13">
          <mxGeometry relative="1" as="geometry">
            <mxPoint x="-52" y="267" as="targetPoint" />
          </mxGeometry>
        </mxCell>
        <mxCell id="_4-YrBIiTZtCkkpfduEx-17" value="YES" style="edgeLabel;html=1;align=center;verticalAlign=middle;resizable=0;points=[];" vertex="1" connectable="0" parent="_4-YrBIiTZtCkkpfduEx-16">
          <mxGeometry x="-0.3271" relative="1" as="geometry">
            <mxPoint as="offset" />
          </mxGeometry>
        </mxCell>
        <mxCell id="_4-YrBIiTZtCkkpfduEx-18" style="edgeStyle=orthogonalEdgeStyle;rounded=0;orthogonalLoop=1;jettySize=auto;html=1;entryX=0.5;entryY=0;entryDx=0;entryDy=0;" edge="1" parent="azSGfPs9xbWuMXh3MNec-4" source="_4-YrBIiTZtCkkpfduEx-13" target="_xWhdsRlSiU0VKHc4Gb8-1">
          <mxGeometry relative="1" as="geometry" />
        </mxCell>
        <mxCell id="_4-YrBIiTZtCkkpfduEx-19" value="NO" style="edgeLabel;html=1;align=center;verticalAlign=middle;resizable=0;points=[];" vertex="1" connectable="0" parent="_4-YrBIiTZtCkkpfduEx-18">
          <mxGeometry x="-0.1265" y="-2" relative="1" as="geometry">
            <mxPoint as="offset" />
          </mxGeometry>
        </mxCell>
        <mxCell id="_4-YrBIiTZtCkkpfduEx-13" value="Valid ?" style="rhombus;whiteSpace=wrap;html=1;" vertex="1" parent="azSGfPs9xbWuMXh3MNec-4">
          <mxGeometry x="97" y="227" width="80" height="80" as="geometry" />
        </mxCell>
        <mxCell id="_4-YrBIiTZtCkkpfduEx-26" value="2.4 Retrieve account " style="swimlane;startSize=21;" vertex="1" parent="azSGfPs9xbWuMXh3MNec-4">
          <mxGeometry x="60.75" y="498" width="152.5" height="82" as="geometry" />
        </mxCell>
        <mxCell id="_4-YrBIiTZtCkkpfduEx-27" value="Get list of linked &lt;br&gt;account from email" style="text;html=1;align=left;verticalAlign=middle;resizable=0;points=[];autosize=1;strokeColor=none;fillColor=none;" vertex="1" parent="_4-YrBIiTZtCkkpfduEx-26">
          <mxGeometry x="16" y="33" width="120" height="40" as="geometry" />
        </mxCell>
        <mxCell id="_4-YrBIiTZtCkkpfduEx-31" value="2.5" style="swimlane;startSize=21;" vertex="1" parent="azSGfPs9xbWuMXh3MNec-4">
          <mxGeometry x="60" y="628" width="151" height="72" as="geometry" />
        </mxCell>
        <mxCell id="_4-YrBIiTZtCkkpfduEx-32" value="Generate account JWT" style="text;html=1;align=center;verticalAlign=middle;resizable=0;points=[];autosize=1;strokeColor=none;fillColor=none;" vertex="1" parent="_4-YrBIiTZtCkkpfduEx-31">
          <mxGeometry x="1" y="31" width="150" height="30" as="geometry" />
        </mxCell>
        <mxCell id="_4-YrBIiTZtCkkpfduEx-36" value="" style="endArrow=classic;html=1;rounded=0;exitX=0.5;exitY=1;exitDx=0;exitDy=0;entryX=0.51;entryY=0;entryDx=0;entryDy=0;entryPerimeter=0;" edge="1" parent="azSGfPs9xbWuMXh3MNec-4" source="_4-YrBIiTZtCkkpfduEx-26" target="_4-YrBIiTZtCkkpfduEx-31">
          <mxGeometry width="50" height="50" relative="1" as="geometry">
            <mxPoint x="-105" y="628" as="sourcePoint" />
            <mxPoint x="-55" y="578" as="targetPoint" />
          </mxGeometry>
        </mxCell>
        <mxCell id="_4-YrBIiTZtCkkpfduEx-62" value="" style="endArrow=classic;html=1;rounded=0;exitX=0.5;exitY=1;exitDx=0;exitDy=0;" edge="1" parent="azSGfPs9xbWuMXh3MNec-4" source="_xWhdsRlSiU0VKHc4Gb8-1" target="_4-YrBIiTZtCkkpfduEx-26">
          <mxGeometry width="50" height="50" relative="1" as="geometry">
            <mxPoint x="-165" y="529" as="sourcePoint" />
            <mxPoint x="-115" y="479" as="targetPoint" />
          </mxGeometry>
        </mxCell>
        <mxCell id="QRnUp6vZIL36JpYoQ4-v-60" value="NO" style="edgeLabel;html=1;align=center;verticalAlign=middle;resizable=0;points=[];" vertex="1" connectable="0" parent="_4-YrBIiTZtCkkpfduEx-62">
          <mxGeometry x="0.024" y="4" relative="1" as="geometry">
            <mxPoint as="offset" />
          </mxGeometry>
        </mxCell>
        <mxCell id="QRnUp6vZIL36JpYoQ4-v-26" value="2.6" style="swimlane;startSize=21;" vertex="1" parent="azSGfPs9xbWuMXh3MNec-4">
          <mxGeometry x="57.75" y="759" width="150" height="71" as="geometry" />
        </mxCell>
        <mxCell id="QRnUp6vZIL36JpYoQ4-v-27" value="&lt;div style=&quot;text-align: left;&quot;&gt;Service will Generate&lt;/div&gt;&lt;div style=&quot;text-align: left;&quot;&gt;JWT for customer&lt;/div&gt;" style="text;html=1;align=center;verticalAlign=middle;resizable=0;points=[];autosize=1;strokeColor=none;fillColor=none;" vertex="1" parent="QRnUp6vZIL36JpYoQ4-v-26">
          <mxGeometry x="5" y="27" width="140" height="40" as="geometry" />
        </mxCell>
        <mxCell id="_4-YrBIiTZtCkkpfduEx-12" style="edgeStyle=orthogonalEdgeStyle;rounded=0;orthogonalLoop=1;jettySize=auto;html=1;exitX=1;exitY=0.5;exitDx=0;exitDy=0;entryX=0;entryY=0.5;entryDx=0;entryDy=0;" edge="1" parent="azSGfPs9xbWuMXh3MNec-1" source="_4-YrBIiTZtCkkpfduEx-5" target="_4-YrBIiTZtCkkpfduEx-8">
          <mxGeometry relative="1" as="geometry" />
        </mxCell>
        <mxCell id="_4-YrBIiTZtCkkpfduEx-71" value="" style="endArrow=classic;html=1;rounded=0;entryX=0;entryY=0.75;entryDx=0;entryDy=0;" edge="1" parent="azSGfPs9xbWuMXh3MNec-1" target="_4-YrBIiTZtCkkpfduEx-52">
          <mxGeometry width="50" height="50" relative="1" as="geometry">
            <mxPoint x="210" y="439" as="sourcePoint" />
            <mxPoint x="360" y="319" as="targetPoint" />
          </mxGeometry>
        </mxCell>
        <mxCell id="QRnUp6vZIL36JpYoQ4-v-32" style="edgeStyle=orthogonalEdgeStyle;rounded=0;orthogonalLoop=1;jettySize=auto;html=1;" edge="1" parent="azSGfPs9xbWuMXh3MNec-1">
          <mxGeometry relative="1" as="geometry">
            <mxPoint x="653.8260869565217" y="849" as="sourcePoint" />
            <mxPoint x="489" y="963" as="targetPoint" />
            <Array as="points">
              <mxPoint x="654" y="962" />
            </Array>
          </mxGeometry>
        </mxCell>
        <mxCell id="_4-YrBIiTZtCkkpfduEx-11" value="Check for valid username&amp;nbsp;&lt;br&gt;Password" style="text;html=1;align=center;verticalAlign=middle;resizable=0;points=[];autosize=1;strokeColor=none;fillColor=none;" vertex="1" parent="1">
          <mxGeometry x="582" y="-1042" width="160" height="40" as="geometry" />
        </mxCell>
        <mxCell id="_4-YrBIiTZtCkkpfduEx-63" value="2.5.1" style="swimlane;startSize=21;" vertex="1" parent="1">
          <mxGeometry x="320" y="-521" width="152.5" height="82" as="geometry" />
        </mxCell>
        <mxCell id="_4-YrBIiTZtCkkpfduEx-64" value="&lt;div style=&quot;text-align: left;&quot;&gt;&lt;span style=&quot;background-color: initial;&quot;&gt;Redirect to customer&lt;/span&gt;&lt;/div&gt;&lt;div style=&quot;text-align: left;&quot;&gt;&lt;span style=&quot;background-color: initial;&quot;&gt;to &lt;/span&gt;&lt;span style=&quot;background-color: initial;&quot;&gt;select the account&amp;nbsp;&lt;/span&gt;&lt;/div&gt;" style="text;html=1;align=center;verticalAlign=middle;resizable=0;points=[];autosize=1;strokeColor=none;fillColor=none;" vertex="1" parent="_4-YrBIiTZtCkkpfduEx-63">
          <mxGeometry x="6" y="33" width="140" height="40" as="geometry" />
        </mxCell>
        <mxCell id="_4-YrBIiTZtCkkpfduEx-67" style="edgeStyle=orthogonalEdgeStyle;rounded=0;orthogonalLoop=1;jettySize=auto;html=1;entryX=0.5;entryY=0;entryDx=0;entryDy=0;" edge="1" parent="1" target="QRnUp6vZIL36JpYoQ4-v-17">
          <mxGeometry relative="1" as="geometry">
            <mxPoint x="320" y="-480" as="sourcePoint" />
            <mxPoint x="200" y="-468" as="targetPoint" />
          </mxGeometry>
        </mxCell>
        <mxCell id="_4-YrBIiTZtCkkpfduEx-75" value="" style="endArrow=classic;html=1;rounded=0;exitX=0.5;exitY=1;exitDx=0;exitDy=0;" edge="1" parent="1" source="_4-YrBIiTZtCkkpfduEx-52">
          <mxGeometry width="50" height="50" relative="1" as="geometry">
            <mxPoint x="390" y="-710" as="sourcePoint" />
            <mxPoint x="590" y="-600" as="targetPoint" />
            <Array as="points">
              <mxPoint x="400" y="-600" />
            </Array>
          </mxGeometry>
        </mxCell>
        <mxCell id="_4-YrBIiTZtCkkpfduEx-76" value="" style="endArrow=classic;html=1;rounded=0;" edge="1" parent="1">
          <mxGeometry width="50" height="50" relative="1" as="geometry">
            <mxPoint x="591" y="-475" as="sourcePoint" />
            <mxPoint x="473" y="-475" as="targetPoint" />
          </mxGeometry>
        </mxCell>
        <mxCell id="QRnUp6vZIL36JpYoQ4-v-1" value="Customer" style="swimlane;startSize=20;html=1;" vertex="1" parent="1">
          <mxGeometry x="10" y="-1149" width="260" height="1039" as="geometry" />
        </mxCell>
        <mxCell id="QRnUp6vZIL36JpYoQ4-v-59" style="edgeStyle=orthogonalEdgeStyle;rounded=0;orthogonalLoop=1;jettySize=auto;html=1;exitX=1;exitY=0.5;exitDx=0;exitDy=0;" edge="1" parent="QRnUp6vZIL36JpYoQ4-v-1" source="QRnUp6vZIL36JpYoQ4-v-2">
          <mxGeometry relative="1" as="geometry">
            <mxPoint x="280" y="122.66666666666652" as="targetPoint" />
          </mxGeometry>
        </mxCell>
        <mxCell id="QRnUp6vZIL36JpYoQ4-v-2" value="2.1 Customer Login" style="swimlane;whiteSpace=wrap;html=1;" vertex="1" parent="QRnUp6vZIL36JpYoQ4-v-1">
          <mxGeometry x="25" y="78" width="200" height="90" as="geometry" />
        </mxCell>
        <mxCell id="QRnUp6vZIL36JpYoQ4-v-3" value="&lt;ul&gt;&lt;li&gt;Enter Username&lt;/li&gt;&lt;li&gt;Enter Password&lt;/li&gt;&lt;/ul&gt;" style="text;html=1;align=center;verticalAlign=middle;resizable=0;points=[];autosize=1;strokeColor=none;fillColor=none;" vertex="1" parent="QRnUp6vZIL36JpYoQ4-v-2">
          <mxGeometry x="-5" y="23" width="150" height="70" as="geometry" />
        </mxCell>
        <mxCell id="QRnUp6vZIL36JpYoQ4-v-4" value="2.4.3 2FA Screen" style="swimlane;startSize=21;" vertex="1" parent="QRnUp6vZIL36JpYoQ4-v-1">
          <mxGeometry x="40.25" y="359" width="169.5" height="81" as="geometry" />
        </mxCell>
        <mxCell id="QRnUp6vZIL36JpYoQ4-v-5" value="Customer Fill 2FA Screen" style="text;html=1;align=center;verticalAlign=middle;resizable=0;points=[];autosize=1;strokeColor=none;fillColor=none;" vertex="1" parent="QRnUp6vZIL36JpYoQ4-v-4">
          <mxGeometry x="5" y="34" width="160" height="30" as="geometry" />
        </mxCell>
        <mxCell id="QRnUp6vZIL36JpYoQ4-v-17" value="2.5.2 Account selection" style="swimlane;startSize=21;" vertex="1" parent="QRnUp6vZIL36JpYoQ4-v-1">
          <mxGeometry x="55" y="699" width="150" height="71" as="geometry" />
        </mxCell>
        <mxCell id="QRnUp6vZIL36JpYoQ4-v-18" value="&lt;div style=&quot;text-align: left;&quot;&gt;Select Account&lt;/div&gt;" style="text;html=1;align=center;verticalAlign=middle;resizable=0;points=[];autosize=1;strokeColor=none;fillColor=none;" vertex="1" parent="QRnUp6vZIL36JpYoQ4-v-17">
          <mxGeometry x="25" y="32" width="100" height="30" as="geometry" />
        </mxCell>
        <mxCell id="QRnUp6vZIL36JpYoQ4-v-54" value="2.3.1 Warning Screen" style="swimlane;startSize=21;" vertex="1" parent="QRnUp6vZIL36JpYoQ4-v-1">
          <mxGeometry x="57.25" y="235" width="152.75" height="61" as="geometry" />
        </mxCell>
        <mxCell id="QRnUp6vZIL36JpYoQ4-v-22" value="" style="endArrow=classic;html=1;rounded=0;exitX=0.5;exitY=1;exitDx=0;exitDy=0;" edge="1" parent="1">
          <mxGeometry width="50" height="50" relative="1" as="geometry">
            <mxPoint x="136" y="-379" as="sourcePoint" />
            <mxPoint x="326" y="-340" as="targetPoint" />
            <Array as="points">
              <mxPoint x="136" y="-340" />
            </Array>
          </mxGeometry>
        </mxCell>
        <mxCell id="QRnUp6vZIL36JpYoQ4-v-28" style="edgeStyle=orthogonalEdgeStyle;rounded=0;orthogonalLoop=1;jettySize=auto;html=1;" edge="1" parent="1" source="QRnUp6vZIL36JpYoQ4-v-24">
          <mxGeometry relative="1" as="geometry">
            <mxPoint x="590" y="-347.5" as="targetPoint" />
          </mxGeometry>
        </mxCell>
        <mxCell id="QRnUp6vZIL36JpYoQ4-v-24" value="2.5.3 " style="swimlane;startSize=21;" vertex="1" parent="1">
          <mxGeometry x="326" y="-383" width="150" height="71" as="geometry" />
        </mxCell>
        <mxCell id="QRnUp6vZIL36JpYoQ4-v-25" value="&lt;div style=&quot;text-align: left;&quot;&gt;Validate JWT&lt;/div&gt;" style="text;html=1;align=center;verticalAlign=middle;resizable=0;points=[];autosize=1;strokeColor=none;fillColor=none;" vertex="1" parent="QRnUp6vZIL36JpYoQ4-v-24">
          <mxGeometry x="30" y="32" width="90" height="30" as="geometry" />
        </mxCell>
        <mxCell id="QRnUp6vZIL36JpYoQ4-v-53" value="Redirect to customer" style="text;html=1;align=center;verticalAlign=middle;resizable=0;points=[];autosize=1;strokeColor=none;fillColor=none;" vertex="1" parent="1">
          <mxGeometry x="345" y="-892" width="130" height="30" as="geometry" />
        </mxCell>
        <mxCell id="QRnUp6vZIL36JpYoQ4-v-56" value="Invailid details" style="text;html=1;align=center;verticalAlign=middle;resizable=0;points=[];autosize=1;strokeColor=none;fillColor=none;" vertex="1" parent="1">
          <mxGeometry x="90" y="-894" width="100" height="30" as="geometry" />
        </mxCell>
        <mxCell id="QRnUp6vZIL36JpYoQ4-v-58" style="edgeStyle=orthogonalEdgeStyle;rounded=0;orthogonalLoop=1;jettySize=auto;html=1;entryX=1;entryY=0.5;entryDx=0;entryDy=0;" edge="1" parent="1" source="QRnUp6vZIL36JpYoQ4-v-51" target="QRnUp6vZIL36JpYoQ4-v-54">
          <mxGeometry relative="1" as="geometry" />
        </mxCell>
      </root>
    </mxGraphModel>
  </diagram>
</mxfile>
